<svg width="102" height="2" viewBox="0 0 102 2" fill="none" xmlns="http://www.w3.org/2000/svg">
<rect width="102" height="2" fill="white"/>
<path d="M0 1C0 0.447715 0.447715 0 1 0C1.55228 0 2 0.447715 2 1C2 1.55228 1.55228 2 1 2C0.447715 2 0 1.55228 0 1Z" fill="#12C868"/>
<path d="M5 1C5 0.447715 5.44772 0 6 0C6.55228 0 7 0.447715 7 1C7 1.55228 6.55228 2 6 2C5.44772 2 5 1.55228 5 1Z" fill="#12C868"/>
<path d="M10 1C10 0.447715 10.4477 0 11 0C11.5523 0 12 0.447715 12 1C12 1.55228 11.5523 2 11 2C10.4477 2 10 1.55228 10 1Z" fill="#12C868"/>
<path d="M15 1C15 0.447715 15.4477 0 16 0C16.5523 0 17 0.447715 17 1C17 1.55228 16.5523 2 16 2C15.4477 2 15 1.55228 15 1Z" fill="#12C868"/>
<path d="M20 1C20 0.447715 20.4477 0 21 0C21.5523 0 22 0.447715 22 1C22 1.55228 21.5523 2 21 2C20.4477 2 20 1.55228 20 1Z" fill="#12C868"/>
<path d="M25 1C25 0.447715 25.4477 0 26 0C26.5523 0 27 0.447715 27 1C27 1.55228 26.5523 2 26 2C25.4477 2 25 1.55228 25 1Z" fill="#12C868"/>
<path d="M30 1C30 0.447715 30.4477 0 31 0C31.5523 0 32 0.447715 32 1C32 1.55228 31.5523 2 31 2C30.4477 2 30 1.55228 30 1Z" fill="#12C868"/>
<path d="M35 1C35 0.447715 35.4477 0 36 0C36.5523 0 37 0.447715 37 1C37 1.55228 36.5523 2 36 2C35.4477 2 35 1.55228 35 1Z" fill="#12C868"/>
<path d="M40 1C40 0.447715 40.4477 0 41 0C41.5523 0 42 0.447715 42 1C42 1.55228 41.5523 2 41 2C40.4477 2 40 1.55228 40 1Z" fill="#12C868"/>
<path d="M45 1C45 0.447715 45.4477 0 46 0C46.5523 0 47 0.447715 47 1C47 1.55228 46.5523 2 46 2C45.4477 2 45 1.55228 45 1Z" fill="#12C868"/>
<path d="M50 1C50 0.447715 50.4477 0 51 0C51.5523 0 52 0.447715 52 1C52 1.55228 51.5523 2 51 2C50.4477 2 50 1.55228 50 1Z" fill="#12C868"/>
<path d="M55 1C55 0.447715 55.4477 0 56 0C56.5523 0 57 0.447715 57 1C57 1.55228 56.5523 2 56 2C55.4477 2 55 1.55228 55 1Z" fill="#12C868"/>
<path d="M60 1C60 0.447715 60.4477 0 61 0C61.5523 0 62 0.447715 62 1C62 1.55228 61.5523 2 61 2C60.4477 2 60 1.55228 60 1Z" fill="#12C868"/>
<path d="M65 1C65 0.447715 65.4477 0 66 0C66.5523 0 67 0.447715 67 1C67 1.55228 66.5523 2 66 2C65.4477 2 65 1.55228 65 1Z" fill="#12C868"/>
<path d="M70 1C70 0.447715 70.4477 0 71 0C71.5523 0 72 0.447715 72 1C72 1.55228 71.5523 2 71 2C70.4477 2 70 1.55228 70 1Z" fill="#12C868"/>
<path d="M75 1C75 0.447715 75.4477 0 76 0C76.5523 0 77 0.447715 77 1C77 1.55228 76.5523 2 76 2C75.4477 2 75 1.55228 75 1Z" fill="#12C868"/>
<path d="M80 1C80 0.447715 80.4477 0 81 0C81.5523 0 82 0.447715 82 1C82 1.55228 81.5523 2 81 2C80.4477 2 80 1.55228 80 1Z" fill="#12C868"/>
<path d="M85 1C85 0.447715 85.4477 0 86 0C86.5523 0 87 0.447715 87 1C87 1.55228 86.5523 2 86 2C85.4477 2 85 1.55228 85 1Z" fill="#12C868"/>
<path d="M90 1C90 0.447715 90.4477 0 91 0C91.5523 0 92 0.447715 92 1C92 1.55228 91.5523 2 91 2C90.4477 2 90 1.55228 90 1Z" fill="#12C868"/>
<path d="M95 1C95 0.447715 95.4477 0 96 0C96.5523 0 97 0.447715 97 1C97 1.55228 96.5523 2 96 2C95.4477 2 95 1.55228 95 1Z" fill="#12C868"/>
<path d="M100 1C100 0.447715 100.448 0 101 0C101.552 0 102 0.447715 102 1C102 1.55228 101.552 2 101 2C100.448 2 100 1.55228 100 1Z" fill="currentColor"/>
</svg>
